<?xml version="1.0" encoding="UTF-8"?>
<!DOCTYPE svg PUBLIC "-//W3C//DTD SVG 1.1//EN" "http://www.w3.org/Graphics/SVG/1.1/DTD/svg11.dtd">
<!-- Creator: CorelDRAW 2018 (64-Bit) -->
<svg xmlns="http://www.w3.org/2000/svg" xml:space="preserve" width="30.0001mm" height="30mm" version="1.1" style="shape-rendering:geometricPrecision; text-rendering:geometricPrecision; image-rendering:optimizeQuality; fill-rule:evenodd; clip-rule:evenodd"
viewBox="0 0 480.7 480.7"
 xmlns:xlink="http://www.w3.org/1999/xlink">
 <defs>
  <style type="text/css">
   <![CDATA[
    .fil0 {fill:#1C1C1C}
    .fil2 {fill:#1EC01E}
    .fil4 {fill:url(#id0)}
    .fil6 {fill:url(#id1)}
    .fil3 {fill:url(#id2)}
    .fil1 {fill:url(#id3)}
    .fil5 {fill:url(#id4)}
   ]]>
  </style>
  <linearGradient id="id0" gradientUnits="userSpaceOnUse" x1="157.24" y1="310.32" x2="247.22" y2="309.44">
   <stop offset="0" style="stop-opacity:1; stop-color:#1EC01E"/>
   <stop offset="0.631373" style="stop-opacity:1; stop-color:#1D6E1D"/>
   <stop offset="1" style="stop-opacity:1; stop-color:#1C1C1C"/>
  </linearGradient>
  <linearGradient id="id1" gradientUnits="userSpaceOnUse" x1="342.46" y1="143.03" x2="406.15" y2="242.01">
   <stop offset="0" style="stop-opacity:1; stop-color:#1EC01E"/>
   <stop offset="0.670588" style="stop-opacity:1; stop-color:#1D6E1D"/>
   <stop offset="1" style="stop-opacity:1; stop-color:#1C1C1C"/>
  </linearGradient>
  <linearGradient id="id2" gradientUnits="userSpaceOnUse" x1="110.54" y1="232.59" x2="141.39" y2="335.82">
   <stop offset="0" style="stop-opacity:1; stop-color:#1EC01E"/>
   <stop offset="0.529412" style="stop-opacity:1; stop-color:#1D6E1D"/>
   <stop offset="1" style="stop-opacity:1; stop-color:#1C1C1C"/>
  </linearGradient>
  <linearGradient id="id3" gradientUnits="userSpaceOnUse" x1="357.96" y1="249.59" x2="390.27" y2="337.64">
   <stop offset="0" style="stop-opacity:1; stop-color:#1EC01E"/>
   <stop offset="0.678431" style="stop-opacity:1; stop-color:#1D6E1D"/>
   <stop offset="1" style="stop-opacity:1; stop-color:#1C1C1C"/>
  </linearGradient>
  <linearGradient id="id4" gradientUnits="userSpaceOnUse" x1="205.47" y1="150.72" x2="252.93" y2="36.8">
   <stop offset="0" style="stop-opacity:1; stop-color:#1EC01E"/>
   <stop offset="0.65098" style="stop-opacity:1; stop-color:#1D6E1D"/>
   <stop offset="1" style="stop-opacity:1; stop-color:#1C1C1C"/>
  </linearGradient>
 </defs>
 <g id="Layer_x0020_1">
  <metadata id="CorelCorpID_0Corel-Layer"/>
  <g id="_2261192237312">
   <circle class="fil0" cx="240.35" cy="240.35" r="240.35"/>
   <g>
    <path class="fil1" d="M392.97 261.51l0.01 -109.27c0,0 -19.47,11.21 -57.92,33.34l-0.16 109.45 58.07 -33.53z"/>
    <polygon class="fil2" points="392.97,328.47 392.97,261.51 182.36,383.09 240.35,416.58 "/>
    <polygon class="fil3" points="145.65,252.89 145.65,118.8 87.73,152.23 87.73,286.25 "/>
    <path class="fil4" d="M145.55 361.84l37.2 -21.48 -0.23 -66.63 -94.79 54.73c6.33,3.65 26.25,15.16 57.82,33.38z"/>
    <path class="fil5" d="M182.48 340.52c-0.01,-103.55 -0.02,-242.98 -0.02,-242.98 38.56,22.25 57.84,33.37 57.84,33.37 0,59.06 0,176.01 0,176.01 -38.55,22.25 -57.82,33.6 -57.82,33.6z"/>
    <path class="fil6" d="M182.46 97.55c101.73,58.69 152.59,88.03 152.59,88.03 38.45,-22.13 57.92,-33.34 57.92,-33.34 -101.58,-58.84 -152.62,-88.12 -152.62,-88.12 -38.6,22.28 -57.89,33.42 -57.89,33.42z"/>
   </g>
  </g>
 </g>
</svg>
