<?xml version="1.0" encoding="UTF-8"?>
<!DOCTYPE svg PUBLIC "-//W3C//DTD SVG 1.1//EN" "http://www.w3.org/Graphics/SVG/1.1/DTD/svg11.dtd">
<!-- Creator: CorelDRAW 2018 (64-Bit) -->
<svg xmlns="http://www.w3.org/2000/svg" xml:space="preserve" width="8.328mm" height="8.328mm" version="1.1" style="shape-rendering:geometricPrecision; text-rendering:geometricPrecision; image-rendering:optimizeQuality; fill-rule:evenodd; clip-rule:evenodd"
viewBox="0 0 832.8 832.8"
 xmlns:xlink="http://www.w3.org/1999/xlink">
 <defs>
  <style type="text/css">
   <![CDATA[
    .str0 {stroke:black;stroke-width:20;stroke-miterlimit:22.9256}
    .fil0 {fill:#1C1C1C}
    .fil2 {fill:#1EC01E}
    .fil3 {fill:url(#id0)}
    .fil6 {fill:url(#id1)}
    .fil4 {fill:url(#id2)}
    .fil5 {fill:url(#id3)}
    .fil1 {fill:url(#id4)}
   ]]>
  </style>
  <linearGradient id="id0" gradientUnits="userSpaceOnUse" x1="195.26" y1="403.18" x2="247.82" y2="579.05">
   <stop offset="0" style="stop-opacity:1; stop-color:#1EC01E"/>
   <stop offset="0.529412" style="stop-opacity:1; stop-color:#1D6E1D"/>
   <stop offset="1" style="stop-opacity:1; stop-color:#1C1C1C"/>
  </linearGradient>
  <linearGradient id="id1" gradientUnits="userSpaceOnUse" x1="590.35" y1="250.61" x2="698.85" y2="419.24">
   <stop offset="0" style="stop-opacity:1; stop-color:#1EC01E"/>
   <stop offset="0.670588" style="stop-opacity:1; stop-color:#1D6E1D"/>
   <stop offset="1" style="stop-opacity:1; stop-color:#1C1C1C"/>
  </linearGradient>
  <linearGradient id="id2" gradientUnits="userSpaceOnUse" x1="274.81" y1="535.59" x2="428.11" y2="534.09">
   <stop offset="0" style="stop-opacity:1; stop-color:#1EC01E"/>
   <stop offset="0.631373" style="stop-opacity:1; stop-color:#1D6E1D"/>
   <stop offset="1" style="stop-opacity:1; stop-color:#1C1C1C"/>
  </linearGradient>
  <linearGradient id="id3" gradientUnits="userSpaceOnUse" x1="356.98" y1="263.7" x2="437.84" y2="69.64">
   <stop offset="0" style="stop-opacity:1; stop-color:#1EC01E"/>
   <stop offset="0.65098" style="stop-opacity:1; stop-color:#1D6E1D"/>
   <stop offset="1" style="stop-opacity:1; stop-color:#1C1C1C"/>
  </linearGradient>
  <linearGradient id="id4" gradientUnits="userSpaceOnUse" x1="616.75" y1="432.14" x2="671.79" y2="582.13">
   <stop offset="0" style="stop-opacity:1; stop-color:#1EC01E"/>
   <stop offset="0.678431" style="stop-opacity:1; stop-color:#1D6E1D"/>
   <stop offset="1" style="stop-opacity:1; stop-color:#1C1C1C"/>
  </linearGradient>
 </defs>
 <g id="Layer_x0020_1">
  <metadata id="CorelCorpID_0Corel-Layer"/>
  <g id="_2176848272016">
   <circle class="fil0 str0" cx="416.4" cy="416.4" r="406.4"/>
   <g>
    <path class="fil1" d="M676.38 452.44l0.01 -186.15c0,0 -33.16,19.1 -98.67,56.8l-0.26 186.46 98.92 -57.11z"/>
    <polygon class="fil2" points="676.39,566.51 676.38,452.44 317.6,659.57 416.4,716.61 "/>
    <polygon class="fil3" points="255.08,437.75 255.08,209.33 156.41,266.29 156.41,494.58 "/>
    <path class="fil4" d="M254.9 623.37l63.37 -36.59 -0.39 -113.51 -161.47 93.23c10.78,6.21 44.72,25.83 98.49,56.87z"/>
    <path class="fil5" d="M317.81 587.05c-0.02,-176.41 -0.03,-413.92 -0.03,-413.92 65.68,37.89 98.52,56.84 98.52,56.84 0,100.6 0,299.84 0,299.84 -65.66,37.91 -98.49,57.24 -98.49,57.24z"/>
    <path class="fil6" d="M317.78 173.13c173.3,99.97 259.94,149.96 259.94,149.96 65.51,-37.7 98.67,-56.8 98.67,-56.8 -173.05,-100.23 -259.99,-150.1 -259.99,-150.1 -65.75,37.96 -98.62,56.94 -98.62,56.94z"/>
   </g>
  </g>
 </g>
</svg>
