<?xml version="1.0" encoding="UTF-8"?>
<!DOCTYPE svg PUBLIC "-//W3C//DTD SVG 1.1//EN" "http://www.w3.org/Graphics/SVG/1.1/DTD/svg11.dtd">
<!-- Creator: CorelDRAW 2018 (64-Bit) -->
<svg xmlns="http://www.w3.org/2000/svg" xml:space="preserve" width="84.7045mm" height="25.4187mm" version="1.1" style="shape-rendering:geometricPrecision; text-rendering:geometricPrecision; image-rendering:optimizeQuality; fill-rule:evenodd; clip-rule:evenodd"
viewBox="0 0 3926.6 1178.32"
 xmlns:xlink="http://www.w3.org/1999/xlink">
 <defs>
  <style type="text/css">
   <![CDATA[
    .fil2 {fill:#1EC01E}
    .fil0 {fill:#1EC01E;fill-rule:nonzero}
    .fil3 {fill:url(#id0)}
    .fil1 {fill:url(#id1)}
    .fil5 {fill:url(#id2)}
    .fil6 {fill:url(#id3)}
    .fil4 {fill:url(#id4)}
   ]]>
  </style>
  <linearGradient id="id0" gradientUnits="userSpaceOnUse" x1="76.27" y1="563.22" x2="179.41" y2="908.34">
   <stop offset="0" style="stop-opacity:1; stop-color:#1EC01E"/>
   <stop offset="0.529412" style="stop-opacity:1; stop-color:#1D6E1D"/>
   <stop offset="1" style="stop-opacity:1; stop-color:#1C1C1C"/>
  </linearGradient>
  <linearGradient id="id1" gradientUnits="userSpaceOnUse" x1="903.41" y1="620.06" x2="1011.43" y2="914.41">
   <stop offset="0" style="stop-opacity:1; stop-color:#1EC01E"/>
   <stop offset="0.678431" style="stop-opacity:1; stop-color:#1D6E1D"/>
   <stop offset="1" style="stop-opacity:1; stop-color:#1C1C1C"/>
  </linearGradient>
  <linearGradient id="id2" gradientUnits="userSpaceOnUse" x1="393.62" y1="289.5" x2="552.3" y2="-91.33">
   <stop offset="0" style="stop-opacity:1; stop-color:#1EC01E"/>
   <stop offset="0.65098" style="stop-opacity:1; stop-color:#1D6E1D"/>
   <stop offset="1" style="stop-opacity:1; stop-color:#1C1C1C"/>
  </linearGradient>
  <linearGradient id="id3" gradientUnits="userSpaceOnUse" x1="851.6" y1="263.79" x2="1064.52" y2="594.72">
   <stop offset="0" style="stop-opacity:1; stop-color:#1EC01E"/>
   <stop offset="0.670588" style="stop-opacity:1; stop-color:#1D6E1D"/>
   <stop offset="1" style="stop-opacity:1; stop-color:#1C1C1C"/>
  </linearGradient>
  <linearGradient id="id4" gradientUnits="userSpaceOnUse" x1="232.37" y1="823.07" x2="533.21" y2="820.13">
   <stop offset="0" style="stop-opacity:1; stop-color:#1EC01E"/>
   <stop offset="0.631373" style="stop-opacity:1; stop-color:#1D6E1D"/>
   <stop offset="1" style="stop-opacity:1; stop-color:#1C1C1C"/>
  </linearGradient>
 </defs>
 <g id="Layer_x0020_1">
  <metadata id="CorelCorpID_0Corel-Layer"/>
  <g id="_2261211518992">
   <path class="fil0" d="M1438.77 567.25c-23.96,-3.26 -43.02,-22.25 -46.28,-46.13l0 -265.39 -68.06 0 0 258.87c0,19 4.35,36.91 12.52,53.19 11.44,23.88 31.04,43.42 55,55.35 16.34,8.14 34.31,12.48 53.36,12.48l193.3 0 0 -67.84 -199.83 -0.54z"/>
   <polygon id="1" class="fil0" points="1761.11,635.63 1761.11,255.73 1693.05,255.73 1693.05,635.63 "/>
   <polygon id="2" class="fil0" points="1815.57,255.73 1815.57,323.57 1971.84,323.57 1971.84,635.63 2039.9,635.63 2039.9,323.57 2196.17,323.57 2196.17,255.73 "/>
   <path id="3" class="fil0" d="M2354.08 323.57l278.24 0 0 -67.84 -278.24 0c-56.63,0 -102.36,46.13 -102.36,102.57l0 174.75c0,56.44 45.74,102.57 102.36,102.57l278.24 0 0 -67.84 -278.24 0c-19.06,0 -34.85,-15.74 -34.85,-34.73l0 -71.64 245.02 0 0 -67.84 -245.02 0 0 -35.28c0,-18.99 15.79,-34.73 34.85,-34.73z"/>
   <path id="4" class="fil0" d="M2686.77 255.73l0 379.9 190.58 0c52.27,0 99.64,-21.17 133.95,-55.9 3.81,-3.8 7.62,-7.6 10.89,-11.39 28.31,-33.11 45.19,-75.98 45.19,-122.65 0,-105.28 -85.49,-189.95 -190.57,-189.95l-190.03 0zm67.52 67.84l122.52 0c67.52,0 122.51,54.9 122.51,122.39 0,67.48 -54.99,122.38 -122.51,122.38l-122.52 0 0 -244.77z"/>
   <path id="5" class="fil0" d="M3225.28 323.57l278.24 0 0 -67.84 -278.24 0c-56.63,0 -102.37,46.13 -102.37,102.57l0 174.75c0,56.44 45.74,102.57 102.37,102.57l278.24 0 0 -67.84 -278.24 0c-19.06,0 -34.85,-15.74 -34.85,-34.73l0 -71.64 245.03 0 0 -67.84 -245.03 0 0 -35.28c0,-18.99 15.79,-34.73 34.85,-34.73z"/>
   <path id="6" class="fil0" d="M3544.36 637.26l1.09 -1.08 -1.09 0 0 1.08zm381.15 -1.08l-0.54 0 0.54 1.08 0 -1.08zm0 -380.44l-85.49 0 -104.54 135.32 -104.54 -135.32 -86.03 0 147.56 190.77 -146.47 189.68 86.03 0 104 -134.23 104 134.23 86.03 0 -147.01 -189.68 147.56 -190.77 -1.09 0z"/>
   <path class="fil0" d="M1592.92 945.5c-3.54,0 -6.32,-0.95 -8.37,-2.85 -2.04,-1.9 -3.05,-4.54 -3.05,-7.94l0 -105.42c0,-8.82 2.58,-15.74 7.75,-20.76 5.17,-5.02 12.38,-7.53 21.63,-7.53l34.69 0c20.13,0 35.4,4.2 45.81,12.62 10.41,8.41 15.61,20.82 15.61,37.24 0,16.14 -5.13,28.39 -15.4,36.73 -10.27,8.34 -25.27,12.52 -45,12.52l-41.83 0 0 34.6c0,3.26 -1.09,5.87 -3.27,7.83 -2.17,1.97 -5.03,2.95 -8.57,2.95zm53.47 -63.7c24.75,0 37.14,-10.31 37.14,-30.93 0,-10.86 -3.1,-18.86 -9.29,-24.02 -6.19,-5.15 -15.4,-7.73 -27.65,-7.73l-32.44 0c-2.99,0 -5.31,0.95 -6.94,2.85 -1.63,1.9 -2.44,4.47 -2.44,7.73l0 52.1 41.63 0z"/>
   <path id="1" class="fil0" d="M1859.09 829.5c0,-8.82 2.58,-15.78 7.75,-20.86 5.17,-5.09 12.45,-7.63 21.84,-7.63l36.93 0c19.73,0 34.59,3.93 44.59,11.8 10,7.87 15,19.47 15,34.8 0,14.52 -4.42,25.78 -13.26,33.78 -8.84,8.01 -21.09,12.01 -36.73,12.01l33.87 34.19c2.18,2.17 3.26,4.54 3.26,7.12 0,2.85 -1.36,5.43 -4.08,7.73 -2.59,1.9 -5.1,2.85 -7.55,2.85 -3.4,0 -6.67,-1.63 -9.8,-4.89l-44.9 -46.4 -23.06 0 0 40.5c0,3.39 -1.12,6.07 -3.37,8.04 -2.25,1.97 -5.14,2.95 -8.67,2.95 -3.67,0 -6.56,-0.98 -8.67,-2.95 -2.1,-1.97 -3.16,-4.64 -3.16,-8.04l0 -105.01zm66.32 45.79c13.06,0 22.28,-2.07 27.65,-6.21 5.37,-4.14 8.06,-11.3 8.06,-21.47 0,-9.9 -2.93,-17.03 -8.78,-21.37 -5.85,-4.34 -14.83,-6.51 -26.94,-6.51l-33.26 0c-2.86,0 -5.1,0.91 -6.74,2.74 -1.63,1.83 -2.45,4.38 -2.45,7.63l0 45.18 42.44 0z"/>
   <path id="2" class="fil0" d="M2204.02 945.5c-15.1,0 -28.33,-3.05 -39.69,-9.16 -11.36,-6.11 -20.1,-14.72 -26.22,-25.84 -6.12,-11.13 -9.18,-23.88 -9.18,-38.26 0,-14.38 3.06,-27.13 9.18,-38.26 6.12,-11.13 14.86,-19.74 26.22,-25.85 11.36,-6.11 24.59,-9.16 39.69,-9.16 15.1,0 28.33,3.05 39.69,9.16 11.36,6.11 20.1,14.72 26.22,25.85 6.13,11.13 9.18,23.88 9.18,38.26 0,14.38 -3.05,27.14 -9.18,38.26 -6.12,11.13 -14.86,19.74 -26.22,25.84 -11.36,6.11 -24.59,9.16 -39.69,9.16zm0 -18.52c15.91,0 28.5,-4.89 37.75,-14.65 9.25,-9.77 13.87,-23.13 13.87,-40.09 0,-17.09 -4.73,-30.49 -14.18,-40.19 -9.46,-9.7 -22.34,-14.55 -38.67,-14.55 -10.34,0 -19.32,2.24 -26.93,6.71 -7.62,4.48 -13.47,10.86 -17.55,19.13 -4.08,8.28 -6.12,17.91 -6.12,28.9 0,11.26 2.11,21 6.33,29.2 4.21,8.21 10.2,14.52 17.95,18.93 7.76,4.41 16.94,6.62 27.55,6.62z"/>
   <path id="3" class="fil0" d="M2475.9 945.5c-3.54,0 -6.36,-0.95 -8.47,-2.85 -2.11,-1.9 -3.17,-4.54 -3.17,-7.94l0 -115.59 -41.83 0c-3.54,0 -6.26,-0.78 -8.17,-2.34 -1.9,-1.56 -2.85,-3.76 -2.85,-6.62 0,-2.99 0.95,-5.26 2.85,-6.82 1.91,-1.56 4.63,-2.34 8.17,-2.34l106.93 0c3.54,0 6.29,0.78 8.27,2.34 1.97,1.56 2.96,3.83 2.96,6.82 0,2.85 -0.98,5.05 -2.96,6.62 -1.97,1.56 -4.73,2.34 -8.27,2.34l-41.83 0 0 115.59c0,3.26 -1.06,5.87 -3.16,7.83 -2.11,1.97 -4.93,2.95 -8.47,2.95z"/>
   <path id="4" class="fil0" d="M2747.98 945.5c-15.1,0 -28.33,-3.05 -39.69,-9.16 -11.36,-6.11 -20.1,-14.72 -26.22,-25.84 -6.12,-11.13 -9.18,-23.88 -9.18,-38.26 0,-14.38 3.06,-27.13 9.18,-38.26 6.12,-11.13 14.86,-19.74 26.22,-25.85 11.36,-6.11 24.59,-9.16 39.69,-9.16 15.1,0 28.33,3.05 39.69,9.16 11.36,6.11 20.1,14.72 26.22,25.85 6.13,11.13 9.18,23.88 9.18,38.26 0,14.38 -3.05,27.14 -9.18,38.26 -6.12,11.13 -14.86,19.74 -26.22,25.84 -11.36,6.11 -24.59,9.16 -39.69,9.16zm0 -18.52c15.91,0 28.5,-4.89 37.75,-14.65 9.25,-9.77 13.87,-23.13 13.87,-40.09 0,-17.09 -4.73,-30.49 -14.18,-40.19 -9.46,-9.7 -22.34,-14.55 -38.67,-14.55 -10.34,0 -19.32,2.24 -26.93,6.71 -7.62,4.48 -13.47,10.86 -17.55,19.13 -4.08,8.28 -6.12,17.91 -6.12,28.9 0,11.26 2.11,21 6.33,29.2 4.21,8.21 10.2,14.52 17.95,18.93 7.76,4.41 16.94,6.62 27.55,6.62z"/>
   <path id="5" class="fil0" d="M3045.57 945.5c-14.97,0 -27.99,-2.95 -39.08,-8.85 -11.09,-5.9 -19.59,-14.35 -25.51,-25.34 -5.92,-10.99 -8.88,-23.94 -8.88,-38.87 0,-14.92 2.96,-27.92 8.88,-38.97 5.92,-11.06 14.38,-19.57 25.4,-25.54 11.02,-5.97 24.01,-8.95 38.98,-8.95 12.24,0 23.6,2.1 34.08,6.31 10.47,4.2 18.37,9.9 23.67,17.09 1.5,2.17 2.24,4.14 2.24,5.9 0,2.99 -1.56,5.63 -4.69,7.94 -1.77,1.08 -3.6,1.63 -5.51,1.63 -1.77,0 -3.5,-0.41 -5.2,-1.22 -1.7,-0.81 -3.16,-1.9 -4.39,-3.25 -4.49,-5.43 -10.04,-9.43 -16.63,-12.01 -6.6,-2.58 -14.45,-3.87 -23.57,-3.87 -15.65,0 -27.86,4.85 -36.63,14.55 -8.78,9.7 -13.17,23.16 -13.17,40.39 0,16.96 4.42,30.29 13.27,39.99 8.84,9.7 21.08,14.55 36.73,14.55 18.5,0 32.72,-5.29 42.64,-15.87 3.27,-3.26 6.6,-4.89 10,-4.89 2.17,0 4.15,0.68 5.92,2.04 2.72,2.31 4.08,4.82 4.08,7.53 0,2.31 -0.82,4.48 -2.45,6.51 -5.85,7.19 -14.08,12.85 -24.69,16.99 -10.61,4.14 -22.45,6.21 -35.5,6.21z"/>
   <path id="6" class="fil0" d="M3332.34 945.5c-15.1,0 -28.33,-3.05 -39.69,-9.16 -11.36,-6.11 -20.1,-14.72 -26.22,-25.84 -6.12,-11.13 -9.18,-23.88 -9.18,-38.26 0,-14.38 3.06,-27.13 9.18,-38.26 6.12,-11.13 14.86,-19.74 26.22,-25.85 11.36,-6.11 24.59,-9.16 39.69,-9.16 15.1,0 28.33,3.05 39.69,9.16 11.36,6.11 20.1,14.72 26.22,25.85 6.13,11.13 9.19,23.88 9.19,38.26 0,14.38 -3.06,27.14 -9.19,38.26 -6.12,11.13 -14.86,19.74 -26.22,25.84 -11.36,6.11 -24.59,9.16 -39.69,9.16zm0 -18.52c15.92,0 28.5,-4.89 37.75,-14.65 9.25,-9.77 13.87,-23.13 13.87,-40.09 0,-17.09 -4.73,-30.49 -14.18,-40.19 -9.45,-9.7 -22.34,-14.55 -38.67,-14.55 -10.34,0 -19.32,2.24 -26.94,6.71 -7.62,4.48 -13.47,10.86 -17.55,19.13 -4.08,8.28 -6.12,17.91 -6.12,28.9 0,11.26 2.11,21 6.33,29.2 4.22,8.21 10.2,14.52 17.95,18.93 7.76,4.41 16.94,6.62 27.55,6.62z"/>
   <path id="7" class="fil0" d="M3590.14 943.46c-9.52,0 -16.97,-2.54 -22.34,-7.63 -5.37,-5.09 -8.06,-12.18 -8.06,-21.27l0 -104.81c0,-3.39 1.02,-6.04 3.05,-7.94 2.04,-1.9 4.83,-2.85 8.37,-2.85 3.54,0 6.36,0.98 8.47,2.95 2.11,1.97 3.17,4.58 3.17,7.83l0 105.02c0,3.25 0.84,5.83 2.54,7.73 1.7,1.9 4.05,2.85 7.04,2.85l66.12 0c7.35,0 11.02,3.05 11.02,9.16 0,2.85 -0.95,5.06 -2.86,6.62 -1.9,1.56 -4.62,2.34 -8.16,2.34l-68.36 0z"/>
   <g>
    <path class="fil1" d="M1020.45 659.88l0.02 -365.3c0,0 -65.09,37.47 -193.64,111.47l-0.52 365.91 194.14 -112.08z"/>
    <polygon class="fil2" points="1020.46,883.74 1020.45,659.88 316.35,1066.37 510.25,1178.32 "/>
    <polygon class="fil3" points="193.64,631.07 193.64,182.78 0.01,294.58 0.01,742.6 "/>
    <path class="fil4" d="M193.3 995.33l124.36 -71.8 -0.76 -222.76 -316.89 182.95c21.16,12.19 87.77,50.69 193.3,111.6z"/>
    <path class="fil5" d="M316.75 924.05c-0.04,-346.19 -0.06,-812.3 -0.06,-812.3 128.9,74.36 193.35,111.55 193.35,111.55 0,197.43 0,588.44 0,588.44 -128.86,74.4 -193.29,112.32 -193.29,112.32z"/>
    <path class="fil6" d="M316.69 111.75c340.09,196.2 510.14,294.3 510.14,294.3 128.54,-74 193.64,-111.47 193.64,-111.47 -339.61,-196.7 -510.23,-294.58 -510.23,-294.58 -129.03,74.49 -193.54,111.75 -193.54,111.75z"/>
   </g>
  </g>
 </g>
</svg>
