<?xml version="1.0" encoding="UTF-8"?>
<!DOCTYPE svg PUBLIC "-//W3C//DTD SVG 1.1//EN" "http://www.w3.org/Graphics/SVG/1.1/DTD/svg11.dtd">
<!-- Creator: CorelDRAW 2018 (64-Bit) -->
<svg xmlns="http://www.w3.org/2000/svg" xml:space="preserve" width="29.972mm" height="29.972mm" version="1.1" style="shape-rendering:geometricPrecision; text-rendering:geometricPrecision; image-rendering:optimizeQuality; fill-rule:evenodd; clip-rule:evenodd"
viewBox="0 0 889.69 889.69"
 xmlns:xlink="http://www.w3.org/1999/xlink">
 <defs>
  <style type="text/css">
   <![CDATA[
    .fil0 {fill:none}
    .fil2 {fill:#1EC01E}
    .fil3 {fill:url(#id0)}
    .fil4 {fill:url(#id1)}
    .fil6 {fill:url(#id2)}
    .fil1 {fill:url(#id3)}
    .fil5 {fill:url(#id4)}
   ]]>
  </style>
  <linearGradient id="id0" gradientUnits="userSpaceOnUse" x1="117.18" y1="425.26" x2="195.05" y2="685.84">
   <stop offset="0" style="stop-opacity:1; stop-color:#1EC01E"/>
   <stop offset="0.529412" style="stop-opacity:1; stop-color:#1D6E1D"/>
   <stop offset="1" style="stop-opacity:1; stop-color:#1C1C1C"/>
  </linearGradient>
  <linearGradient id="id1" gradientUnits="userSpaceOnUse" x1="235.04" y1="621.46" x2="462.2" y2="619.24">
   <stop offset="0" style="stop-opacity:1; stop-color:#1EC01E"/>
   <stop offset="0.631373" style="stop-opacity:1; stop-color:#1D6E1D"/>
   <stop offset="1" style="stop-opacity:1; stop-color:#1C1C1C"/>
  </linearGradient>
  <linearGradient id="id2" gradientUnits="userSpaceOnUse" x1="702.6" y1="199.17" x2="863.37" y2="449.04">
   <stop offset="0" style="stop-opacity:1; stop-color:#1EC01E"/>
   <stop offset="0.670588" style="stop-opacity:1; stop-color:#1D6E1D"/>
   <stop offset="1" style="stop-opacity:1; stop-color:#1C1C1C"/>
  </linearGradient>
  <linearGradient id="id3" gradientUnits="userSpaceOnUse" x1="741.72" y1="468.17" x2="823.28" y2="690.42">
   <stop offset="0" style="stop-opacity:1; stop-color:#1EC01E"/>
   <stop offset="0.678431" style="stop-opacity:1; stop-color:#1D6E1D"/>
   <stop offset="1" style="stop-opacity:1; stop-color:#1C1C1C"/>
  </linearGradient>
  <linearGradient id="id4" gradientUnits="userSpaceOnUse" x1="356.8" y1="218.59" x2="476.61" y2="-68.96">
   <stop offset="0" style="stop-opacity:1; stop-color:#1EC01E"/>
   <stop offset="0.65098" style="stop-opacity:1; stop-color:#1D6E1D"/>
   <stop offset="1" style="stop-opacity:1; stop-color:#1C1C1C"/>
  </linearGradient>
 </defs>
 <g id="Layer_x0020_1">
  <metadata id="CorelCorpID_0Corel-Layer"/>
  <g id="_2261204043648">
   <rect class="fil0" x="-0" y="-0" width="889.69" height="889.69"/>
   <g>
    <path class="fil1" d="M830.09 498.25l0.01 -275.82c0,0 -49.15,28.29 -146.2,84.16l-0.39 276.29 146.58 -84.63z"/>
    <polygon class="fil2" points="830.1,667.27 830.09,498.25 298.45,805.17 444.86,889.69 "/>
    <polygon class="fil3" points="205.81,476.49 205.81,138.01 59.6,222.42 59.6,560.7 "/>
    <path class="fil4" d="M205.54 751.53l93.9 -54.22 -0.58 -168.19 -239.27 138.14c15.98,9.21 66.27,38.28 145.95,84.27z"/>
    <path class="fil5" d="M298.76 697.71c-0.03,-261.39 -0.05,-613.33 -0.05,-613.33 97.33,56.15 145.99,84.23 145.99,84.23 0,149.07 0,444.3 0,444.3 -97.3,56.18 -145.95,84.81 -145.95,84.81z"/>
    <path class="fil6" d="M298.71 84.37c256.79,148.14 385.18,222.22 385.18,222.22 97.06,-55.87 146.2,-84.16 146.2,-84.16 -256.42,-148.52 -385.25,-222.42 -385.25,-222.42 -97.43,56.25 -146.14,84.37 -146.14,84.37z"/>
   </g>
  </g>
 </g>
</svg>
